<svg xmlns="http://www.w3.org/2000/svg" viewBox="0 0 700 150" role="img" aria-labelledby="title desc">
  <title id="title">Electro Power Engineering</title>
  <desc id="desc">A navy engineering gear crossed by a blue lightning bolt beside the Electro Power Engineering name and Est. 1994</desc>
  <defs>
    <linearGradient id="bolt" x1="0" y1="0" x2="1" y2="1">
      <stop offset="0" stop-color="#0757a6"/><stop offset="1" stop-color="#159de1"/>
    </linearGradient>
  </defs>
  <g transform="translate(8 5)">
    <g fill="#071f44">
      <circle cx="66" cy="70" r="48"/>
      <path d="M56 4h20l4 18H52zM56 118h20l4 18H52zM0 60v20l18 4V56zM114 60v20l18 4V56zM17 19l14-14 16 10-25 25zM101 100l14-14 10 16-25 25zM17 121l-14-14 10-16 25 25zM101 40L87 26l16-10 25 25z"/>
    </g>
    <circle cx="66" cy="70" r="27" fill="#fff"/>
    <path d="M93 0 42 63h24l-37 77 72-87H75z" fill="url(#bolt)"/>
  </g>
  <path d="M157 15v119" stroke="#071f44" stroke-width="2"/>
  <text x="181" y="47" fill="#071f44" font-family="Arial,Helvetica,sans-serif" font-size="37" font-weight="600" letter-spacing="12">ELECTRO</text>
  <text x="181" y="88" fill="#168ee0" font-family="Arial,Helvetica,sans-serif" font-size="41" font-weight="700" letter-spacing="10">POWER</text>
  <text x="181" y="119" fill="#071f44" font-family="Arial,Helvetica,sans-serif" font-size="23" font-weight="600" letter-spacing="9">ENGINEERING</text>
  <path d="M181 137h175M520 137h150" stroke="#168ee0" stroke-width="2"/>
  <text x="374" y="143" fill="#071f44" font-family="Arial,Helvetica,sans-serif" font-size="15" font-weight="700" letter-spacing="4">EST. 1994</text>
</svg>
