<svg xmlns="http://www.w3.org/2000/svg" viewBox="0 0 32 32" role="img" aria-label="WhatsApp">
  <circle cx="16" cy="16" r="15" fill="#25D366"/>
  <path fill="#fff" d="M23.3 8.6A10.1 10.1 0 0 0 7.5 20.8L6 26l5.3-1.4A10.1 10.1 0 0 0 26 15.7c0-2.7-1-5.2-2.7-7.1Zm-7.2 15.4c-1.6 0-3.2-.4-4.6-1.3l-.3-.2-3.1.8.8-3-.2-.3a8.3 8.3 0 1 1 7.4 4Zm4.6-6.2c-.3-.1-1.5-.8-1.8-.8-.2-.1-.4-.1-.6.2l-.8 1c-.1.2-.3.2-.5.1-1.5-.7-2.5-1.4-3.5-3-.3-.5.3-.5.8-1.7.1-.2 0-.4 0-.5l-.8-1.9c-.2-.5-.4-.5-.6-.5h-.5c-.2 0-.5.1-.7.3-.2.3-.9.9-.9 2.2s.9 2.5 1 2.7c.1.2 1.8 2.8 4.4 3.9.6.3 1.1.4 1.5.6.6.2 1.2.2 1.7.1.5-.1 1.5-.6 1.7-1.2.2-.6.2-1.1.2-1.2-.1-.1-.3-.2-.6-.3Z"/>
</svg>
